# Blender 4.1.1
# www.blender.org
mtllib skybox.mtl
o Cube_Cube.001
v -200.000000 -199.999985 200.000015
v -200.000000 200.000015 199.999985
v -200.000000 199.999985 -200.000015
v -200.000000 -200.000015 -199.999985
v 200.000000 199.999985 -200.000015
v 200.000000 -200.000015 -199.999985
v 200.000000 200.000015 199.999985
v 200.000000 -199.999985 200.000015
vn -1.0000 -0.0000 -0.0000
vn -0.0000 -0.0000 -1.0000
vn 1.0000 -0.0000 -0.0000
vn -0.0000 -0.0000 1.0000
vn -0.0000 -1.0000 -0.0000
vn -0.0000 1.0000 -0.0000
vt 1.000000 0.666367
vt 0.750000 0.337033
vt 1.000000 0.337033
vt 0.750000 0.666367
vt 0.500000 0.337033
vt 0.500000 0.666367
vt 0.250100 0.337033
vt 0.250100 0.666367
vt 0.000000 0.337033
vt 0.250100 0.000000
vt 0.499999 0.000000
vt 0.499999 1.000000
vt 0.000000 0.666367
vt 0.250100 1.000000
s 0
usemtl sky
f 2/1/1 4/2/1 1/3/1
f 3/4/2 6/5/2 4/2/2
f 5/6/3 8/7/3 6/5/3
f 7/8/4 1/9/4 8/7/4
f 6/5/5 1/10/5 4/11/5
f 3/12/6 7/8/6 5/6/6
f 2/1/1 3/4/1 4/2/1
f 3/4/2 5/6/2 6/5/2
f 5/6/3 7/8/3 8/7/3
f 7/8/4 2/13/4 1/9/4
f 6/5/5 8/7/5 1/10/5
f 3/12/6 2/14/6 7/8/6
